<svg width="40" height="40" viewBox="0 0 40 40" fill="none" xmlns="http://www.w3.org/2000/svg">
<path d="M14.3359 6.25C9.89746 6.25 6.25 9.89258 6.25 14.3359V25.6641C6.25 30.1025 9.89258 33.75 14.3359 33.75H25.6641C30.1025 33.75 33.75 30.1074 33.75 25.6641V14.3359C33.75 9.89746 30.1074 6.25 25.6641 6.25H14.3359ZM14.3359 8.75H25.6641C28.7549 8.75 31.25 11.2451 31.25 14.3359V25.6641C31.25 28.7549 28.7549 31.25 25.6641 31.25H14.3359C11.2451 31.25 8.75 28.7549 8.75 25.6641V14.3359C8.75 11.2451 11.2451 8.75 14.3359 8.75ZM27.3828 11.4844C26.7529 11.4844 26.25 11.9873 26.25 12.6172C26.25 13.2471 26.7529 13.75 27.3828 13.75C28.0127 13.75 28.5156 13.2471 28.5156 12.6172C28.5156 11.9873 28.0127 11.4844 27.3828 11.4844ZM20 12.5C15.874 12.5 12.5 15.874 12.5 20C12.5 24.126 15.874 27.5 20 27.5C24.126 27.5 27.5 24.126 27.5 20C27.5 15.874 24.126 12.5 20 12.5ZM20 15C22.7783 15 25 17.2217 25 20C25 22.7783 22.7783 25 20 25C17.2217 25 15 22.7783 15 20C15 17.2217 17.2217 15 20 15Z" fill="white"/>
</svg>
