<svg width="40" height="40" viewBox="0 0 40 40" fill="none" xmlns="http://www.w3.org/2000/svg">
<path d="M11.8737 9.375C9.0598 9.38162 6.3634 10.5041 4.37599 12.4962C2.38858 14.4883 1.27246 17.1873 1.27246 20.0012C1.27246 22.8151 2.38858 25.5142 4.37599 27.5063C6.3634 29.4984 9.0598 30.6208 11.8737 30.6274C14.6876 30.6208 17.3841 29.4984 19.3715 27.5063C21.3589 25.5142 22.475 22.8151 22.475 20.0012C22.475 17.1873 21.3589 14.4883 19.3715 12.4962C17.3841 10.5041 14.6876 9.38162 11.8737 9.375ZM28.4362 10C27.0292 10.0064 25.6809 11.0629 24.6872 12.9378C23.6934 14.8127 23.1354 17.3529 23.1354 20.0012C23.1354 22.6495 23.6934 25.1897 24.6872 27.0646C25.6809 28.9395 27.0292 29.996 28.4362 30.0024C29.8433 29.996 31.1915 28.9395 32.1853 27.0646C33.179 25.1897 33.7371 22.6495 33.7371 20.0012C33.7371 17.3529 33.179 14.8127 32.1853 12.9378C31.1915 11.0629 29.8433 10.0064 28.4362 10ZM36.5624 10.625C36.2747 10.6219 35.9897 10.8622 35.7236 11.332C35.4576 11.8018 35.2158 12.4919 35.0121 13.3629C34.8084 14.2339 34.6468 15.2686 34.5365 16.4077C34.4262 17.5468 34.3695 18.7679 34.3695 20.0012C34.3695 21.2345 34.4262 22.4557 34.5365 23.5948C34.6468 24.7339 34.8084 25.7686 35.0121 26.6395C35.2158 27.5105 35.4576 28.2006 35.7236 28.6705C35.9897 29.1403 36.2747 29.3805 36.5624 29.3774C36.8502 29.3805 37.1352 29.1403 37.4012 28.6705C37.6673 28.2006 37.9091 27.5105 38.1128 26.6395C38.3165 25.7686 38.4781 24.7339 38.5884 23.5948C38.6987 22.4557 38.7554 21.2345 38.7554 20.0012C38.7554 18.7679 38.6987 17.5468 38.5884 16.4077C38.4781 15.2686 38.3165 14.2339 38.1128 13.3629C37.9091 12.4919 37.6673 11.8018 37.4012 11.332C37.1352 10.8622 36.8502 10.6219 36.5624 10.625Z" fill="white"/>
</svg>
