<svg width="40" height="40" viewBox="0 0 40 40" fill="none" xmlns="http://www.w3.org/2000/svg">
<path d="M35.9702 10.3101C35.5868 8.87675 34.4568 7.74675 33.0235 7.36342C30.4235 6.66675 20.0002 6.66675 20.0002 6.66675C20.0002 6.66675 9.57683 6.66675 6.97683 7.36342C5.5435 7.74675 4.4135 8.87675 4.03016 10.3101C3.3335 12.9101 3.3335 20.0001 3.3335 20.0001C3.3335 20.0001 3.3335 27.0901 4.03016 29.6901C4.4135 31.1234 5.5435 32.2534 6.97683 32.6368C9.57683 33.3334 20.0002 33.3334 20.0002 33.3334C20.0002 33.3334 30.4235 33.3334 33.0235 32.6368C34.4585 32.2534 35.5868 31.1234 35.9702 29.6901C36.6668 27.0901 36.6668 20.0001 36.6668 20.0001C36.6668 20.0001 36.6668 12.9101 35.9702 10.3101ZM16.6668 24.3301V15.6701C16.6668 15.0284 17.3618 14.6284 17.9168 14.9484L25.4168 19.2784C25.9718 19.5984 25.9718 20.4018 25.4168 20.7218L17.9168 25.0518C17.3618 25.3734 16.6668 24.9718 16.6668 24.3301Z" fill="white"/>
</svg>
