<svg width="80" height="80" viewBox="0 0 80 80" fill="none" xmlns="http://www.w3.org/2000/svg">
<path d="M30.3 28.5V51.5C30.3 52.7 30.8167 53.6 31.85 54.2C32.8833 54.8 33.9 54.7667 34.9 54.1L53 42.5C53.9333 41.9 54.4 41.0667 54.4 40C54.4 38.9333 53.9333 38.1 53 37.5L34.9 25.9C33.9 25.2333 32.8833 25.2 31.85 25.8C30.8167 26.4 30.3 27.3 30.3 28.5ZM40 80C34.5333 80 29.3667 78.95 24.5 76.85C19.6333 74.75 15.3833 71.8833 11.75 68.25C8.11667 64.6167 5.25 60.3667 3.15 55.5C1.05 50.6333 0 45.4667 0 40C0 34.5333 1.05 29.3667 3.15 24.5C5.25 19.6333 8.11667 15.3833 11.75 11.75C15.3833 8.11667 19.6333 5.25 24.5 3.15C29.3667 1.05 34.5333 0 40 0C45.4667 0 50.6333 1.05 55.5 3.15C60.3667 5.25 64.6167 8.11667 68.25 11.75C71.8833 15.3833 74.75 19.6333 76.85 24.5C78.95 29.3667 80 34.5333 80 40C80 45.4667 78.95 50.6333 76.85 55.5C74.75 60.3667 71.8833 64.6167 68.25 68.25C64.6167 71.8833 60.3667 74.75 55.5 76.85C50.6333 78.95 45.4667 80 40 80ZM40 74C49.3333 74 57.3333 70.6667 64 64C70.6667 57.3333 74 49.3333 74 40C74 30.6667 70.6667 22.6667 64 16C57.3333 9.33333 49.3333 6 40 6C30.6667 6 22.6667 9.33333 16 16C9.33333 22.6667 6 30.6667 6 40C6 49.3333 9.33333 57.3333 16 64C22.6667 70.6667 30.6667 74 40 74Z" fill="white"/>
</svg>
