<svg width="111" height="43" viewBox="0 0 111 43" fill="none" xmlns="http://www.w3.org/2000/svg">
<path fill-rule="evenodd" clip-rule="evenodd" d="M17.1388 21.4955L17.1388 14.9875L11.5025 11.7333L5.86621 14.9875V21.4955V21.4957V28.0037L11.5025 31.2578L17.1388 28.0037L17.1388 21.4957V21.4955ZM17.1386 21.4956L11.5025 18.2416L5.8664 21.4956L11.5025 24.7496L17.1386 21.4956Z" fill="white"/>
<path d="M38.4229 16.6017L35.2251 26.3767H32.7953L30.6448 19.7577L28.4245 26.3767H26.0087L22.7969 16.6017H25.1429L27.3492 23.4722L29.6533 16.6017H31.748L33.9822 23.528L36.2584 16.6017H38.4229Z" fill="white"/>
<path d="M41.724 18.7522C42.8877 18.7522 43.7814 19.0315 44.4051 19.5901C45.0289 20.1394 45.3407 20.9726 45.3407 22.0897V26.3767H43.302V25.4411C42.8923 26.1393 42.129 26.4884 41.0118 26.4884C40.4346 26.4884 39.9319 26.3907 39.5037 26.1952C39.0847 25.9997 38.7636 25.7297 38.5401 25.3853C38.3167 25.0408 38.205 24.6498 38.205 24.2123C38.205 23.514 38.4657 22.9648 38.987 22.5645C39.5176 22.1642 40.3322 21.964 41.4307 21.964H43.1623C43.1623 21.4892 43.018 21.1262 42.7294 20.8748C42.4408 20.6141 42.0079 20.4838 41.4307 20.4838C41.0304 20.4838 40.6348 20.549 40.2438 20.6793C39.8621 20.8003 39.5363 20.9679 39.2663 21.182L38.4843 19.6599C38.8939 19.3713 39.3827 19.1479 39.9505 18.9896C40.5277 18.8314 41.1189 18.7522 41.724 18.7522ZM41.5564 25.0222C41.9288 25.0222 42.2593 24.9384 42.5479 24.7708C42.8365 24.5939 43.0413 24.3379 43.1623 24.0028V23.2348H41.6681C40.7744 23.2348 40.3276 23.528 40.3276 24.1145C40.3276 24.3938 40.4346 24.6172 40.6487 24.7848C40.8722 24.9431 41.1747 25.0222 41.5564 25.0222Z" fill="white"/>
<path d="M51.5993 18.7522C52.5303 18.7522 53.2797 19.0315 53.8476 19.5901C54.4248 20.1487 54.7134 20.9772 54.7134 22.0757V26.3767H52.5349V22.4109C52.5349 21.8151 52.4046 21.3729 52.1439 21.0843C51.8833 20.7864 51.5062 20.6374 51.0128 20.6374C50.4636 20.6374 50.026 20.8096 49.7002 21.1541C49.3744 21.4892 49.2114 21.9919 49.2114 22.6622V26.3767H47.033V18.864H49.1137V19.7437C49.4023 19.4272 49.7607 19.1851 50.1889 19.0176C50.6172 18.8407 51.0873 18.7522 51.5993 18.7522Z" fill="white"/>
<path d="M64.2407 18.864V25.1199C64.2407 26.4977 63.8823 27.5218 63.1654 28.1921C62.4486 28.8624 61.4013 29.1975 60.0235 29.1975C59.2973 29.1975 58.6084 29.1091 57.9568 28.9322C57.3051 28.7553 56.7652 28.4993 56.3369 28.1641L57.2027 26.6001C57.5192 26.8608 57.9195 27.0656 58.4036 27.2146C58.8877 27.3728 59.3718 27.452 59.8559 27.452C60.61 27.452 61.1639 27.2797 61.5177 26.9353C61.8807 26.6001 62.0623 26.0881 62.0623 25.3992V25.078C61.4944 25.7018 60.7031 26.0136 59.6883 26.0136C58.9994 26.0136 58.3664 25.8647 57.7892 25.5668C57.2213 25.2596 56.7698 24.8313 56.4347 24.2821C56.0995 23.7328 55.932 23.0998 55.932 22.3829C55.932 21.6661 56.0995 21.0331 56.4347 20.4838C56.7698 19.9345 57.2213 19.511 57.7892 19.2131C58.3664 18.9058 58.9994 18.7522 59.6883 18.7522C60.7775 18.7522 61.6061 19.1107 62.174 19.8275V18.864H64.2407ZM60.1212 24.2262C60.6984 24.2262 61.1685 24.0587 61.5316 23.7235C61.904 23.3791 62.0902 22.9322 62.0902 22.3829C62.0902 21.8337 61.904 21.3915 61.5316 21.0563C61.1685 20.7119 60.6984 20.5397 60.1212 20.5397C59.544 20.5397 59.0693 20.7119 58.6969 21.0563C58.3245 21.3915 58.1383 21.8337 58.1383 22.3829C58.1383 22.9322 58.3245 23.3791 58.6969 23.7235C59.0693 24.0587 59.544 24.2262 60.1212 24.2262Z" fill="white"/>
<path d="M77.8283 16.6017V26.3767H75.5661V22.369H71.1255V26.3767H68.8633V16.6017H71.1255V20.4559H75.5661V16.6017H77.8283Z" fill="white"/>
<path d="M82.7384 18.7522C83.9021 18.7522 84.7958 19.0315 85.4195 19.5901C86.0433 20.1394 86.3551 20.9726 86.3551 22.0897V26.3767H84.3164V25.4411C83.9067 26.1393 83.1434 26.4884 82.0262 26.4884C81.449 26.4884 80.9463 26.3907 80.5181 26.1952C80.0992 25.9997 79.778 25.7297 79.5545 25.3853C79.3311 25.0408 79.2194 24.6498 79.2194 24.2123C79.2194 23.514 79.4801 22.9648 80.0014 22.5645C80.532 22.1642 81.3466 21.964 82.4451 21.964H84.1767C84.1767 21.4892 84.0324 21.1262 83.7438 20.8748C83.4552 20.6141 83.0223 20.4838 82.4451 20.4838C82.0448 20.4838 81.6492 20.549 81.2582 20.6793C80.8765 20.8003 80.5507 20.9679 80.2807 21.182L79.4987 19.6599C79.9083 19.3713 80.3971 19.1479 80.9649 18.9896C81.5421 18.8314 82.1333 18.7522 82.7384 18.7522ZM82.5708 25.0222C82.9432 25.0222 83.2737 24.9384 83.5623 24.7708C83.8509 24.594 84.0557 24.3379 84.1767 24.0028V23.2348H82.6825C81.7888 23.2348 81.342 23.528 81.342 24.1145C81.342 24.3938 81.449 24.6172 81.6631 24.7848C81.8866 24.9431 82.1891 25.0222 82.5708 25.0222Z" fill="white"/>
<path d="M92.6137 18.7522C93.5447 18.7522 94.2941 19.0315 94.862 19.5901C95.4392 20.1487 95.7278 20.9772 95.7278 22.0757V26.3767H93.5493V22.4109C93.5493 21.8151 93.419 21.3729 93.1583 21.0843C92.8977 20.7864 92.5206 20.6374 92.0272 20.6374C91.478 20.6374 91.0404 20.8096 90.7146 21.1541C90.3888 21.4892 90.2258 21.9919 90.2258 22.6622V26.3767H88.0474V18.864H90.1281V19.7437C90.4167 19.4272 90.7751 19.1851 91.2033 19.0176C91.6316 18.8407 92.1017 18.7522 92.6137 18.7522Z" fill="white"/>
<path d="M101.989 18.7522C102.92 18.7522 103.67 19.0315 104.238 19.5901C104.815 20.1487 105.103 20.9772 105.103 22.0757V26.3767H102.925V22.4109C102.925 21.8151 102.795 21.3729 102.534 21.0843C102.273 20.7864 101.896 20.6374 101.403 20.6374C100.854 20.6374 100.416 20.8096 100.09 21.1541C99.7644 21.4892 99.6015 21.9919 99.6015 22.6622V26.3767H97.4231V18.864H99.5038V19.7437C99.7924 19.4272 100.151 19.1851 100.579 19.0176C101.007 18.8407 101.477 18.7522 101.989 18.7522Z" fill="white"/>
</svg>
