<svg width="76" height="30" viewBox="0 0 76 30" fill="none" xmlns="http://www.w3.org/2000/svg">
<path fill-rule="evenodd" clip-rule="evenodd" d="M11.6859 14.656V10.2187L7.84293 8L4 10.2187L4 14.6561L4 19.0934L7.84293 21.3121L11.6859 19.0934L11.6859 14.6561L11.6859 14.656ZM11.6857 14.6561L7.84293 12.4374L4.00016 14.6561L7.84293 16.8747L11.6857 14.6561Z" fill="white"/>
<path d="M26.198 11.3193L24.0177 17.9841H22.361L20.8948 13.4711L19.3809 17.9841H17.7338L15.5439 11.3193H17.1435L18.6478 16.0037L20.2188 11.3193H21.647L23.1703 16.0418L24.7223 11.3193H26.198Z" fill="white"/>
<path d="M28.4488 12.7856C29.2422 12.7856 29.8516 12.976 30.2768 13.3568C30.7021 13.7313 30.9148 14.2994 30.9148 15.0611V17.9841H29.5247V17.3462C29.2454 17.8222 28.7249 18.0603 27.9632 18.0603C27.5697 18.0603 27.2269 17.9936 26.9349 17.8603C26.6493 17.727 26.4303 17.5429 26.278 17.3081C26.1257 17.0732 26.0495 16.8067 26.0495 16.5083C26.0495 16.0323 26.2272 15.6578 26.5827 15.3848C26.9445 15.1119 27.4999 14.9754 28.2489 14.9754H29.4295C29.4295 14.6517 29.3311 14.4042 29.1343 14.2328C28.9375 14.0551 28.6424 13.9662 28.2489 13.9662C27.9759 13.9662 27.7062 14.0106 27.4396 14.0995C27.1793 14.182 26.9572 14.2963 26.7731 14.4422L26.2399 13.4045C26.5192 13.2077 26.8524 13.0553 27.2396 12.9474C27.6332 12.8395 28.0362 12.7856 28.4488 12.7856ZM28.3345 17.0605C28.5884 17.0605 28.8138 17.0034 29.0105 16.8892C29.2073 16.7686 29.347 16.594 29.4295 16.3655V15.8418H28.4107C27.8014 15.8418 27.4967 16.0418 27.4967 16.4417C27.4967 16.6321 27.5697 16.7844 27.7157 16.8987C27.868 17.0066 28.0743 17.0605 28.3345 17.0605Z" fill="white"/>
<path d="M35.182 12.7856C35.8167 12.7856 36.3277 12.976 36.7149 13.3568C37.1084 13.7377 37.3052 14.3026 37.3052 15.0516V17.9841H35.8199V15.2801C35.8199 14.8739 35.731 14.5724 35.5533 14.3756C35.3756 14.1725 35.1185 14.0709 34.7821 14.0709C34.4076 14.0709 34.1093 14.1884 33.8871 14.4232C33.665 14.6517 33.5539 14.9945 33.5539 15.4515V17.9841H32.0686V12.8618H33.4872V13.4616C33.684 13.2458 33.9284 13.0807 34.2204 12.9665C34.5123 12.8459 34.8329 12.7856 35.182 12.7856Z" fill="white"/>
<path d="M43.8011 12.8618V17.1272C43.8011 18.0666 43.5567 18.7648 43.068 19.2218C42.5792 19.6788 41.8651 19.9073 40.9257 19.9073C40.4306 19.9073 39.9609 19.847 39.5166 19.7264C39.0723 19.6058 38.7041 19.4313 38.4122 19.2028L39.0025 18.1364C39.2183 18.3142 39.4912 18.4538 39.8213 18.5554C40.1513 18.6633 40.4814 18.7172 40.8115 18.7172C41.3256 18.7172 41.7033 18.5998 41.9445 18.3649C42.192 18.1364 42.3158 17.7873 42.3158 17.3176V17.0986C41.9286 17.5239 41.3891 17.7365 40.6972 17.7365C40.2275 17.7365 39.7959 17.635 39.4023 17.4319C39.0152 17.2224 38.7073 16.9304 38.4788 16.5559C38.2503 16.1814 38.136 15.7498 38.136 15.2611C38.136 14.7723 38.2503 14.3407 38.4788 13.9662C38.7073 13.5917 39.0152 13.3029 39.4023 13.0998C39.7959 12.8903 40.2275 12.7856 40.6972 12.7856C41.4399 12.7856 42.0048 13.03 42.392 13.5187V12.8618H43.8011ZM40.9924 16.5178C41.3859 16.5178 41.7065 16.4036 41.954 16.1751C42.2079 15.9402 42.3348 15.6356 42.3348 15.2611C42.3348 14.8866 42.2079 14.5851 41.954 14.3566C41.7065 14.1217 41.3859 14.0043 40.9924 14.0043C40.5988 14.0043 40.2751 14.1217 40.0212 14.3566C39.7673 14.5851 39.6404 14.8866 39.6404 15.2611C39.6404 15.6356 39.7673 15.9402 40.0212 16.1751C40.2751 16.4036 40.5988 16.5178 40.9924 16.5178Z" fill="white"/>
<path d="M53.0652 11.3193V17.9841H51.5228V15.2515H48.4951V17.9841H46.9526V11.3193H48.4951V13.9472H51.5228V11.3193H53.0652Z" fill="white"/>
<path d="M56.4129 12.7856C57.2064 12.7856 57.8157 12.976 58.241 13.3568C58.6663 13.7313 58.8789 14.2994 58.8789 15.0611V17.9841H57.4888V17.3462C57.2095 17.8222 56.6891 18.0603 55.9274 18.0603C55.5338 18.0603 55.1911 17.9936 54.8991 17.8603C54.6135 17.727 54.3945 17.5429 54.2421 17.3081C54.0898 17.0732 54.0136 16.8067 54.0136 16.5083C54.0136 16.0323 54.1914 15.6578 54.5468 15.3848C54.9086 15.1119 55.464 14.9754 56.213 14.9754H57.3936C57.3936 14.6517 57.2952 14.4042 57.0985 14.2328C56.9017 14.0551 56.6065 13.9662 56.213 13.9662C55.9401 13.9662 55.6703 14.0106 55.4037 14.0995C55.1435 14.182 54.9213 14.2963 54.7372 14.4422L54.204 13.4045C54.4833 13.2077 54.8166 13.0553 55.2038 12.9474C55.5973 12.8395 56.0004 12.7856 56.4129 12.7856ZM56.2987 17.0605C56.5526 17.0605 56.7779 17.0034 56.9747 16.8892C57.1715 16.7686 57.3111 16.594 57.3936 16.3655V15.8418H56.3749C55.7655 15.8418 55.4608 16.0418 55.4608 16.4417C55.4608 16.6321 55.5338 16.7844 55.6798 16.8987C55.8322 17.0066 56.0384 17.0605 56.2987 17.0605Z" fill="white"/>
<path d="M63.1461 12.7856C63.7809 12.7856 64.2918 12.976 64.679 13.3568C65.0726 13.7377 65.2693 14.3026 65.2693 15.0516V17.9841H63.784V15.2801C63.784 14.8739 63.6952 14.5724 63.5174 14.3756C63.3397 14.1725 63.0827 14.0709 62.7462 14.0709C62.3717 14.0709 62.0734 14.1884 61.8513 14.4232C61.6291 14.6517 61.518 14.9945 61.518 15.4515V17.9841H60.0327V12.8618H61.4514V13.4616C61.6481 13.2458 61.8925 13.0807 62.1845 12.9665C62.4765 12.8459 62.797 12.7856 63.1461 12.7856Z" fill="white"/>
<path d="M69.5386 12.7856C70.1734 12.7856 70.6843 12.976 71.0715 13.3568C71.4651 13.7377 71.6618 14.3026 71.6618 15.0516V17.9841H70.1765V15.2801C70.1765 14.8739 70.0877 14.5724 69.91 14.3756C69.7322 14.1725 69.4752 14.0709 69.1388 14.0709C68.7643 14.0709 68.4659 14.1884 68.2438 14.4232C68.0216 14.6517 67.9105 14.9945 67.9105 15.4515V17.9841H66.4252V12.8618H67.8439V13.4616C68.0407 13.2458 68.285 13.0807 68.577 12.9665C68.869 12.8459 69.1895 12.7856 69.5386 12.7856Z" fill="white"/>
</svg>
