<svg width="117" height="40" viewBox="0 0 117 40" fill="none" xmlns="http://www.w3.org/2000/svg">
<path fill-rule="evenodd" clip-rule="evenodd" d="M13.2903 19.5096L13.2903 11.8366L6.64517 8L0 11.8366V19.5096V19.5098V27.1828L6.64517 31.0193L13.2903 27.1828L13.2903 19.5098V19.5096ZM13.2902 19.5097L6.64517 15.6732L0.000168485 19.5097L6.64517 23.3462L13.2902 19.5097Z" fill="white"/>
<path d="M38.3829 13.7398L34.6127 25.2645H31.748L29.2126 17.4606L26.5949 25.2645H23.7466L19.96 13.7398H22.7259L25.3272 21.84L28.0437 13.7398H30.5132L33.1475 21.9058L35.8311 13.7398H38.3829Z" fill="white"/>
<path d="M42.275 16.2752C43.6469 16.2752 44.7006 16.6045 45.436 17.2631C46.1714 17.9106 46.5391 18.893 46.5391 20.2101V25.2645H44.1354V24.1614C43.6524 24.9846 42.7524 25.3962 41.4353 25.3962C40.7548 25.3962 40.1621 25.2809 39.6572 25.0504C39.1633 24.8199 38.7846 24.5016 38.5212 24.0955C38.2578 23.6894 38.1261 23.2284 38.1261 22.7126C38.1261 21.8894 38.4334 21.2418 39.048 20.7698C39.6737 20.2979 40.6341 20.0619 41.9292 20.0619H43.9707C43.9707 19.5021 43.8006 19.0741 43.4603 18.7777C43.1201 18.4704 42.6097 18.3167 41.9292 18.3167C41.4572 18.3167 40.9908 18.3936 40.5298 18.5472C40.0798 18.6899 39.6956 18.8875 39.3773 19.1399L38.4554 17.3454C38.9383 17.0051 39.5145 16.7417 40.184 16.5551C40.8646 16.3685 41.5615 16.2752 42.275 16.2752ZM42.0774 23.6675C42.5164 23.6675 42.9061 23.5687 43.2463 23.3711C43.5866 23.1626 43.828 22.8607 43.9707 22.4656V21.5601H42.2091C41.1554 21.5601 40.6286 21.9058 40.6286 22.5973C40.6286 22.9266 40.7548 23.19 41.0072 23.3876C41.2707 23.5742 41.6274 23.6675 42.0774 23.6675Z" fill="white"/>
<path d="M53.9179 16.2752C55.0155 16.2752 55.8991 16.6045 56.5686 17.2631C57.2491 17.9216 57.5894 18.8985 57.5894 20.1936V25.2645H55.021V20.5887C55.021 19.8863 54.8673 19.3649 54.56 19.0247C54.2527 18.6735 53.8082 18.4978 53.2265 18.4978C52.5789 18.4978 52.063 18.7009 51.6789 19.107C51.2947 19.5021 51.1026 20.0948 51.1026 20.8851V25.2645H48.5343V16.4069H50.9874V17.4442C51.3276 17.071 51.7502 16.7856 52.2551 16.588C52.76 16.3795 53.3143 16.2752 53.9179 16.2752Z" fill="white"/>
<path d="M68.822 16.4069V23.7827C68.822 25.4071 68.3995 26.6145 67.5543 27.4048C66.7092 28.195 65.4744 28.5901 63.85 28.5901C62.9939 28.5901 62.1816 28.4859 61.4133 28.2773C60.645 28.0688 60.0084 27.767 59.5035 27.3718L60.5243 25.5279C60.8975 25.8352 61.3694 26.0767 61.9402 26.2523C62.5109 26.4389 63.0817 26.5322 63.6524 26.5322C64.5415 26.5322 65.1945 26.3291 65.6116 25.923C66.0397 25.5279 66.2537 24.9242 66.2537 24.112V23.7333C65.5842 24.4687 64.6512 24.8364 63.4548 24.8364C62.6426 24.8364 61.8963 24.6608 61.2158 24.3096C60.5462 23.9474 60.0139 23.4425 59.6188 22.7949C59.2237 22.1473 59.0261 21.401 59.0261 20.5558C59.0261 19.7107 59.2237 18.9643 59.6188 18.3167C60.0139 17.6692 60.5462 17.1698 61.2158 16.8185C61.8963 16.4563 62.6426 16.2752 63.4548 16.2752C64.739 16.2752 65.7159 16.6978 66.3854 17.5429V16.4069H68.822ZM63.9652 22.729C64.6457 22.729 65.2 22.5315 65.6281 22.1363C66.0671 21.7302 66.2866 21.2034 66.2866 20.5558C66.2866 19.9082 66.0671 19.3869 65.6281 18.9918C65.2 18.5856 64.6457 18.3826 63.9652 18.3826C63.2847 18.3826 62.7249 18.5856 62.2859 18.9918C61.8469 19.3869 61.6274 19.9082 61.6274 20.5558C61.6274 21.2034 61.8469 21.7302 62.2859 22.1363C62.7249 22.5315 63.2847 22.729 63.9652 22.729Z" fill="white"/>
<path d="M84.8422 13.7398V25.2645H82.1751V20.5394H76.9396V25.2645H74.2725V13.7398H76.9396V18.2838H82.1751V13.7398H84.8422Z" fill="white"/>
<path d="M90.6312 16.2752C92.0031 16.2752 93.0568 16.6045 93.7922 17.2631C94.5276 17.9106 94.8953 18.893 94.8953 20.2101V25.2645H92.4916V24.1614C92.0086 24.9846 91.1086 25.3962 89.7915 25.3962C89.111 25.3962 88.5183 25.2809 88.0134 25.0504C87.5195 24.8199 87.1408 24.5016 86.8774 24.0955C86.614 23.6894 86.4823 23.2284 86.4823 22.7126C86.4823 21.8894 86.7896 21.2418 87.4043 20.7698C88.0299 20.2979 88.9903 20.0619 90.2854 20.0619H92.3269C92.3269 19.5021 92.1568 19.0741 91.8166 18.7777C91.4763 18.4704 90.9659 18.3167 90.2854 18.3167C89.8135 18.3167 89.347 18.3936 88.886 18.5472C88.436 18.6899 88.0518 18.8875 87.7335 19.1399L86.8116 17.3454C87.2945 17.0051 87.8707 16.7417 88.5403 16.5551C89.2208 16.3685 89.9177 16.2752 90.6312 16.2752ZM90.4336 23.6675C90.8726 23.6675 91.2623 23.5687 91.6025 23.3711C91.9428 23.1626 92.1842 22.8607 92.3269 22.4656V21.5601H90.5653C89.5116 21.5601 88.9848 21.9058 88.9848 22.5973C88.9848 22.9266 89.111 23.19 89.3634 23.3876C89.6269 23.5742 89.9836 23.6675 90.4336 23.6675Z" fill="white"/>
<path d="M102.274 16.2752C103.372 16.2752 104.255 16.6045 104.925 17.2631C105.605 17.9216 105.946 18.8985 105.946 20.1936V25.2645H103.377V20.5887C103.377 19.8863 103.224 19.3649 102.916 19.0247C102.609 18.6735 102.164 18.4978 101.583 18.4978C100.935 18.4978 100.419 18.7009 100.035 19.107C99.6509 19.5021 99.4588 20.0948 99.4588 20.8851V25.2645H96.8905V16.4069H99.3436V17.4442C99.6838 17.071 100.106 16.7856 100.611 16.588C101.116 16.3795 101.67 16.2752 102.274 16.2752Z" fill="white"/>
<path d="M113.328 16.2752C114.426 16.2752 115.309 16.6045 115.979 17.2631C116.659 17.9216 116.999 18.8985 116.999 20.1936V25.2645H114.431V20.5887C114.431 19.8863 114.277 19.3649 113.97 19.0247C113.663 18.6735 113.218 18.4978 112.637 18.4978C111.989 18.4978 111.473 18.7009 111.089 19.107C110.705 19.5021 110.513 20.0948 110.513 20.8851V25.2645H107.944V16.4069H110.397V17.4442C110.738 17.071 111.16 16.7856 111.665 16.588C112.17 16.3795 112.724 16.2752 113.328 16.2752Z" fill="white"/>
</svg>
